<svg xmlns="http://www.w3.org/2000/svg" width="85.195" height="37.066" viewBox="0 0 85.195 37.066"><g id="Group_9864" data-name="Group 9864" transform="translate(986.714 -447.631)"><path id="Path_8378" data-name="Path 8378" d="M13.312-19.872a5.645,5.645,0,0,0-.672-.032,2.406,2.406,0,0,0-1.6.464,2.786,2.786,0,0,0-.8,1.488h2.816l-.928,5.216H9.312L7.072,0H.768l2.24-12.736H1.056l.928-5.216H3.936l.032-.16a8.4,8.4,0,0,1,2.976-5.3,9.591,9.591,0,0,1,6.112-1.84q.768,0,1.184.032Zm5.6,20.1A8.948,8.948,0,0,1,14.768-.7a6.723,6.723,0,0,1-2.8-2.624A7.716,7.716,0,0,1,10.976-7.3a10.846,10.846,0,0,1,1.456-5.568,10.315,10.315,0,0,1,4.016-3.9,11.686,11.686,0,0,1,5.728-1.408,8.948,8.948,0,0,1,4.144.928,6.8,6.8,0,0,1,2.816,2.64,7.706,7.706,0,0,1,1.008,3.984A10.731,10.731,0,0,1,28.672-5.04,10.349,10.349,0,0,1,24.64-1.168,11.793,11.793,0,0,1,18.912.224Zm.96-5.408a3.115,3.115,0,0,0,2-.7,4.484,4.484,0,0,0,1.344-1.824,5.966,5.966,0,0,0,.464-2.3,2.813,2.813,0,0,0-.688-2.048,2.374,2.374,0,0,0-1.776-.7,3.034,3.034,0,0,0-2,.7A4.617,4.617,0,0,0,17.9-10.24,6.045,6.045,0,0,0,17.44-7.9a2.8,2.8,0,0,0,.672,2.032A2.35,2.35,0,0,0,19.872-5.184ZM37.4-15.456a6.926,6.926,0,0,1,2.432-1.984,7.267,7.267,0,0,1,3.3-.736,5.867,5.867,0,0,1,4.528,1.856,7.215,7.215,0,0,1,1.712,5.088,14.44,14.44,0,0,1-.192,2.24,13.107,13.107,0,0,1-1.888,4.88A9.9,9.9,0,0,1,43.976-.9,8.026,8.026,0,0,1,39.9.224a5.7,5.7,0,0,1-3.024-.736A4.3,4.3,0,0,1,35.128-2.5L33.176,8.576H26.9l4.672-26.528h6.272Zm5.376,6.464a4.73,4.73,0,0,0,.1-.928,2.734,2.734,0,0,0-.752-2.048,2.651,2.651,0,0,0-1.936-.736,3.732,3.732,0,0,0-2.512.992,4.443,4.443,0,0,0-1.424,2.72,4.584,4.584,0,0,0-.1.9A2.833,2.833,0,0,0,36.9-6a2.62,2.62,0,0,0,1.936.752,3.68,3.68,0,0,0,2.528-1.008A4.554,4.554,0,0,0,42.776-8.992Zm17.152-9.184a7.955,7.955,0,0,1,5.584,1.888,6.635,6.635,0,0,1,2.064,5.152,10.253,10.253,0,0,1-.16,1.92,7.711,7.711,0,0,1-.384,1.472H55.16a3.805,3.805,0,0,0-.032.576,2.4,2.4,0,0,0,.592,1.792A2.174,2.174,0,0,0,57.3-4.8a2.856,2.856,0,0,0,2.5-1.408h6.656A9.707,9.707,0,0,1,64.264-2.9,10.655,10.655,0,0,1,60.84-.608a10.614,10.614,0,0,1-4.176.832,7.932,7.932,0,0,1-5.6-1.92,6.83,6.83,0,0,1-2.08-5.28,11.278,11.278,0,0,1,.192-2.016,11.6,11.6,0,0,1,2.032-4.88,10.347,10.347,0,0,1,3.776-3.184A10.963,10.963,0,0,1,59.928-18.176ZM61.24-10.56a5.477,5.477,0,0,0,.064-.576,1.9,1.9,0,0,0-.64-1.552A2.53,2.53,0,0,0,59-13.216a3.237,3.237,0,0,0-2.048.672,3.929,3.929,0,0,0-1.28,1.984Z" transform="translate(-987.482 475.5)" fill="#00b2a8"></path><g id="Group_9656" data-name="Group 9656" transform="translate(-930.848 447.631)"><path id="Union_17" data-name="Union 17" d="M.072,36.9a.433.433,0,0,1,.045-.535l6.565-7.4-3.6-1.908a.394.394,0,0,1-.208-.339.461.461,0,0,1,.184-.378L14.128,17.9c-2.1-2.108-1.853-4.379-.363-6.054A6.4,6.4,0,0,1,9.029,9.088c-.3-.567-1.406-2.763-2-3.968a.473.473,0,0,1,.518-.708c1.628.142,5.476.992,9.619,5.314.222-.071.37-.071.592-.142A8.264,8.264,0,0,1,25.6,12.347l2.442,2.9s3.848,4.393-1.776,5.314a5.5,5.5,0,0,1-3.676,1.187,8.519,8.519,0,0,1-1.873-.218.473.473,0,0,1-.074.067l-6.954,5.088,3.839,2.038a.4.4,0,0,1,.207.391.468.468,0,0,1-.276.381L.582,37.027a.446.446,0,0,1-.182.039A.4.4,0,0,1,.072,36.9ZM19.61,13.835c-.148.5.592,1.2,1.7,1.63a3.912,3.912,0,0,0,2.072-.071c.148-.071.222-.283.148-.354a3.205,3.205,0,0,0-1.554-1.346,3.924,3.924,0,0,0-1.366-.279C20.11,13.414,19.734,13.558,19.61,13.835Zm-7.1-8.927c-.888-1.63-1.332-3.259-.74-4.605a.509.509,0,0,1,.592-.283,5.931,5.931,0,0,1,4.884,5.031,7.886,7.886,0,0,0,1.406,3.33,5.954,5.954,0,0,0-1.11.142A20.638,20.638,0,0,0,12.507,4.907Z" transform="translate(0 0)" fill="#00b2a8"></path></g></g></svg>
